<svg width="163" height="44" viewBox="0 0 163 44" fill="none" xmlns="http://www.w3.org/2000/svg">
<path d="M42.5 2H22.5C11.4543 2 2.5 10.9543 2.5 22V22C2.5 33.0457 11.4543 42 22.5 42H42.5" stroke="#03C7A6" stroke-width="4" stroke-linecap="round"/>
<path d="M44.012 18.392C44.012 17.44 44.1707 16.628 44.488 15.956C44.824 15.2653 45.272 14.7053 45.832 14.276C46.392 13.828 47.0453 13.5013 47.792 13.296C48.5573 13.0907 49.3693 12.988 50.228 12.988C51.6093 12.988 52.6267 13.1747 53.28 13.548C53.9333 13.9027 54.26 14.5187 54.26 15.396C54.26 15.7693 54.176 16.1053 54.008 16.404C53.8587 16.7027 53.6907 16.9267 53.504 17.076C53.1493 16.9827 52.776 16.908 52.384 16.852C52.0107 16.7773 51.572 16.74 51.068 16.74C50.2653 16.74 49.64 16.88 49.192 17.16C48.744 17.4213 48.52 17.888 48.52 18.56V19.456H53.112C53.224 19.6613 53.3267 19.9227 53.42 20.24C53.532 20.5387 53.588 20.8747 53.588 21.248C53.588 21.9013 53.4387 22.3773 53.14 22.676C52.86 22.956 52.4773 23.096 51.992 23.096H48.772V31.972C48.5853 32.028 48.2867 32.084 47.876 32.14C47.484 32.196 47.0733 32.224 46.644 32.224C46.2333 32.224 45.86 32.196 45.524 32.14C45.2067 32.084 44.936 31.972 44.712 31.804C44.488 31.636 44.3107 31.412 44.18 31.132C44.068 30.8333 44.012 30.4507 44.012 29.984V18.392ZM60.2004 31.972C60.0137 32.028 59.715 32.084 59.3044 32.14C58.9124 32.196 58.5017 32.224 58.0724 32.224C57.6617 32.224 57.2884 32.196 56.9524 32.14C56.635 32.084 56.3644 31.972 56.1404 31.804C55.9164 31.636 55.739 31.412 55.6084 31.132C55.4964 30.8333 55.4404 30.4507 55.4404 29.984V21.584C55.4404 21.1547 55.515 20.7907 55.6644 20.492C55.8324 20.1747 56.0657 19.8947 56.3644 19.652C56.663 19.4093 57.027 19.1947 57.4564 19.008C57.9044 18.8027 58.3804 18.6253 58.8844 18.476C59.3884 18.3267 59.911 18.2147 60.4524 18.14C60.9937 18.0467 61.535 18 62.0764 18C62.9724 18 63.6817 18.1773 64.2044 18.532C64.727 18.868 64.9884 19.428 64.9884 20.212C64.9884 20.4733 64.951 20.7347 64.8764 20.996C64.8017 21.2387 64.7084 21.4627 64.5964 21.668C64.2044 21.668 63.803 21.6867 63.3924 21.724C62.9817 21.7613 62.5804 21.8173 62.1884 21.892C61.7964 21.9667 61.423 22.0507 61.0684 22.144C60.7324 22.2187 60.443 22.312 60.2004 22.424V31.972ZM66.8401 14.612C66.8401 13.9027 67.0734 13.3053 67.5401 12.82C68.0254 12.3347 68.6601 12.092 69.4441 12.092C70.2281 12.092 70.8534 12.3347 71.3201 12.82C71.8054 13.3053 72.0481 13.9027 72.0481 14.612C72.0481 15.3213 71.8054 15.9187 71.3201 16.404C70.8534 16.8893 70.2281 17.132 69.4441 17.132C68.6601 17.132 68.0254 16.8893 67.5401 16.404C67.0734 15.9187 66.8401 15.3213 66.8401 14.612ZM71.8241 31.972C71.6188 32.0093 71.3108 32.056 70.9001 32.112C70.5081 32.1867 70.1068 32.224 69.6961 32.224C69.2854 32.224 68.9121 32.196 68.5761 32.14C68.2588 32.084 67.9881 31.972 67.7641 31.804C67.5401 31.636 67.3628 31.412 67.2321 31.132C67.1201 30.8333 67.0641 30.4507 67.0641 29.984V18.588C67.2694 18.5507 67.5681 18.504 67.9601 18.448C68.3708 18.3733 68.7814 18.336 69.1921 18.336C69.6028 18.336 69.9668 18.364 70.2841 18.42C70.6201 18.476 70.9001 18.588 71.1241 18.756C71.3481 18.924 71.5161 19.1573 71.6281 19.456C71.7588 19.736 71.8241 20.1093 71.8241 20.576V31.972ZM82.0504 32.448C80.9491 32.448 79.9224 32.2987 78.9704 32C78.0371 31.6827 77.2158 31.216 76.5064 30.6C75.8158 29.984 75.2651 29.2093 74.8544 28.276C74.4624 27.3427 74.2664 26.2507 74.2664 25C74.2664 23.768 74.4624 22.7133 74.8544 21.836C75.2651 20.94 75.7971 20.212 76.4504 19.652C77.1038 19.0733 77.8504 18.6533 78.6904 18.392C79.5304 18.112 80.3891 17.972 81.2664 17.972C82.2558 17.972 83.1518 18.1213 83.9544 18.42C84.7758 18.7187 85.4758 19.1293 86.0544 19.652C86.6518 20.1747 87.1091 20.8 87.4264 21.528C87.7624 22.256 87.9304 23.0493 87.9304 23.908C87.9304 24.5427 87.7531 25.028 87.3984 25.364C87.0438 25.7 86.5491 25.9147 85.9144 26.008L78.9984 27.044C79.2038 27.66 79.6238 28.1267 80.2584 28.444C80.8931 28.7427 81.6211 28.892 82.4424 28.892C83.2078 28.892 83.9264 28.7987 84.5984 28.612C85.2891 28.4067 85.8491 28.1733 86.2784 27.912C86.5771 28.0987 86.8291 28.36 87.0344 28.696C87.2398 29.032 87.3424 29.3867 87.3424 29.76C87.3424 30.6 86.9504 31.2253 86.1664 31.636C85.5691 31.9533 84.8971 32.168 84.1504 32.28C83.4038 32.392 82.7038 32.448 82.0504 32.448ZM81.2664 21.444C80.8184 21.444 80.4264 21.5187 80.0904 21.668C79.7731 21.8173 79.5118 22.0133 79.3064 22.256C79.1011 22.48 78.9424 22.7413 78.8304 23.04C78.7371 23.32 78.6811 23.6093 78.6624 23.908L83.4504 23.124C83.3944 22.7507 83.1891 22.3773 82.8344 22.004C82.4798 21.6307 81.9571 21.444 81.2664 21.444ZM98.8456 23.376C98.8456 22.7973 98.6776 22.3773 98.3416 22.116C98.0243 21.836 97.5856 21.696 97.0256 21.696C96.6523 21.696 96.279 21.7427 95.9056 21.836C95.551 21.9293 95.243 22.0693 94.9816 22.256V31.972C94.795 32.028 94.4963 32.084 94.0856 32.14C93.6936 32.196 93.283 32.224 92.8536 32.224C92.443 32.224 92.0696 32.196 91.7336 32.14C91.4163 32.084 91.1456 31.972 90.9216 31.804C90.6976 31.636 90.5203 31.412 90.3896 31.132C90.2776 30.8333 90.2216 30.4507 90.2216 29.984V21.584C90.2216 21.08 90.3243 20.6693 90.5296 20.352C90.7536 20.0347 91.0523 19.7453 91.4256 19.484C92.0603 19.036 92.8536 18.672 93.8056 18.392C94.7763 18.112 95.8496 17.972 97.0256 17.972C99.135 17.972 100.759 18.4387 101.898 19.372C103.036 20.2867 103.606 21.5653 103.606 23.208V31.972C103.419 32.028 103.12 32.084 102.71 32.14C102.318 32.196 101.907 32.224 101.478 32.224C101.067 32.224 100.694 32.196 100.358 32.14C100.04 32.084 99.7696 31.972 99.5456 31.804C99.3216 31.636 99.1443 31.412 99.0136 31.132C98.9016 30.8333 98.8456 30.4507 98.8456 29.984V23.376ZM122.282 29.228C122.282 29.8067 122.179 30.236 121.974 30.516C121.769 30.796 121.442 31.0667 120.994 31.328C120.733 31.4773 120.406 31.6267 120.014 31.776C119.622 31.9067 119.193 32.0187 118.726 32.112C118.259 32.224 117.765 32.308 117.242 32.364C116.738 32.42 116.234 32.448 115.73 32.448C114.386 32.448 113.126 32.2707 111.95 31.916C110.774 31.5427 109.747 30.992 108.87 30.264C108.011 29.5173 107.33 28.5933 106.826 27.492C106.322 26.3907 106.07 25.112 106.07 23.656C106.07 22.1253 106.341 20.7907 106.882 19.652C107.442 18.5133 108.17 17.5707 109.066 16.824C109.981 16.0587 111.017 15.4893 112.174 15.116C113.35 14.7427 114.554 14.556 115.786 14.556C117.559 14.556 118.959 14.8453 119.986 15.424C121.031 15.984 121.554 16.7213 121.554 17.636C121.554 18.1213 121.433 18.5413 121.19 18.896C120.947 19.2507 120.667 19.5307 120.35 19.736C119.883 19.456 119.295 19.1853 118.586 18.924C117.895 18.644 117.111 18.504 116.234 18.504C114.666 18.504 113.415 18.952 112.482 19.848C111.567 20.744 111.11 21.9853 111.11 23.572C111.11 24.4307 111.231 25.1773 111.474 25.812C111.735 26.428 112.081 26.9413 112.51 27.352C112.939 27.744 113.434 28.0427 113.994 28.248C114.554 28.4347 115.151 28.528 115.786 28.528C116.197 28.528 116.561 28.4907 116.878 28.416C117.195 28.3413 117.438 28.2573 117.606 28.164V25.532H114.61C114.498 25.3267 114.386 25.056 114.274 24.72C114.181 24.384 114.134 24.0293 114.134 23.656C114.134 22.984 114.283 22.4987 114.582 22.2C114.899 21.9013 115.301 21.752 115.786 21.752H120.518C121.078 21.752 121.507 21.9107 121.806 22.228C122.123 22.5267 122.282 22.956 122.282 23.516V29.228ZM126.721 28.528C126.515 28.0613 126.291 27.5387 126.049 26.96C125.825 26.3813 125.582 25.7187 125.321 24.972C125.078 24.2253 124.817 23.376 124.537 22.424C124.275 21.4533 123.995 20.3427 123.697 19.092C123.958 18.8307 124.303 18.6067 124.733 18.42C125.181 18.2147 125.666 18.112 126.189 18.112C126.842 18.112 127.383 18.252 127.813 18.532C128.242 18.7933 128.559 19.2973 128.765 20.044L130.977 27.744H131.089C131.313 27.1093 131.527 26.4187 131.733 25.672C131.957 24.9253 132.171 24.16 132.377 23.376C132.582 22.5733 132.769 21.78 132.937 20.996C133.123 20.1933 133.282 19.4093 133.413 18.644C134.085 18.2893 134.822 18.112 135.625 18.112C136.278 18.112 136.819 18.252 137.249 18.532C137.678 18.812 137.893 19.2973 137.893 19.988C137.893 20.492 137.827 21.08 137.697 21.752C137.566 22.4053 137.389 23.1053 137.165 23.852C136.959 24.5987 136.707 25.3733 136.409 26.176C136.129 26.96 135.83 27.7347 135.513 28.5C135.195 29.2653 134.869 29.9933 134.533 30.684C134.197 31.356 133.87 31.9627 133.553 32.504C133.03 33.4187 132.545 34.1653 132.097 34.744C131.649 35.3227 131.219 35.7707 130.809 36.088C130.398 36.424 129.987 36.648 129.577 36.76C129.166 36.8907 128.737 36.956 128.289 36.956C127.505 36.956 126.87 36.7227 126.385 36.256C125.899 35.7893 125.61 35.1827 125.517 34.436C126.114 33.9693 126.711 33.4467 127.309 32.868C127.906 32.308 128.447 31.7293 128.933 31.132C128.615 31.0387 128.27 30.824 127.897 30.488C127.542 30.1333 127.15 29.48 126.721 28.528ZM146.347 17.972C147.113 17.972 147.859 18.084 148.587 18.308C149.334 18.5133 149.978 18.8307 150.519 19.26C151.079 18.8867 151.705 18.5787 152.395 18.336C153.105 18.0933 153.954 17.972 154.943 17.972C155.653 17.972 156.343 18.0653 157.015 18.252C157.706 18.4387 158.313 18.7373 158.835 19.148C159.377 19.54 159.806 20.072 160.123 20.744C160.441 21.3973 160.599 22.2 160.599 23.152V31.972C160.413 32.028 160.114 32.084 159.703 32.14C159.311 32.196 158.901 32.224 158.471 32.224C158.061 32.224 157.687 32.196 157.351 32.14C157.034 32.084 156.763 31.972 156.539 31.804C156.315 31.636 156.138 31.412 156.007 31.132C155.895 30.8333 155.839 30.4507 155.839 29.984V23.292C155.839 22.732 155.681 22.3307 155.363 22.088C155.046 21.8267 154.617 21.696 154.075 21.696C153.814 21.696 153.534 21.7613 153.235 21.892C152.937 22.004 152.713 22.1253 152.563 22.256C152.582 22.3307 152.591 22.4053 152.591 22.48C152.591 22.536 152.591 22.592 152.591 22.648V31.972C152.386 32.028 152.078 32.084 151.667 32.14C151.275 32.196 150.874 32.224 150.463 32.224C150.053 32.224 149.679 32.196 149.343 32.14C149.026 32.084 148.755 31.972 148.531 31.804C148.307 31.636 148.13 31.412 147.999 31.132C147.887 30.8333 147.831 30.4507 147.831 29.984V23.292C147.831 22.732 147.654 22.3307 147.299 22.088C146.963 21.8267 146.553 21.696 146.067 21.696C145.731 21.696 145.442 21.752 145.199 21.864C144.957 21.9573 144.751 22.0507 144.583 22.144V31.972C144.397 32.028 144.098 32.084 143.687 32.14C143.295 32.196 142.885 32.224 142.455 32.224C142.045 32.224 141.671 32.196 141.335 32.14C141.018 32.084 140.747 31.972 140.523 31.804C140.299 31.636 140.122 31.412 139.991 31.132C139.879 30.8333 139.823 30.4507 139.823 29.984V21.528C139.823 21.024 139.926 20.6227 140.131 20.324C140.355 20.0253 140.654 19.7453 141.027 19.484C141.662 19.036 142.446 18.672 143.379 18.392C144.331 18.112 145.321 17.972 146.347 17.972Z" fill="#03C7A6"/>
</svg>
